<svg xmlns="http://www.w3.org/2000/svg" xmlns:xlink="http://www.w3.org/1999/xlink" width="1440" zoomAndPan="magnify" viewBox="0 0 1080 239.999995" height="320" preserveAspectRatio="xMidYMid meet" version="1.0"><path fill="#f3f1e8" d="M 0 120.148438 L 45 132.164062 C 90 144.179688 180 168.210938 270 164.230469 C 360 159.949219 450 128.410156 540 100.101562 C 630 72.089844 720 48.058594 810 48.058594 C 900 48.058594 990 72.089844 1035 84.105469 L 1080 96.121094 L 1080 240.300781 L 1035 240.300781 C 990 240.300781 900 240.300781 810 240.300781 C 720 240.300781 630 240.300781 540 240.300781 C 450 240.300781 360 240.300781 270 240.300781 C 180 240.300781 90 240.300781 45 240.300781 L 0 240.300781 Z M 0 120.148438 " fill-opacity="1" fill-rule="nonzero"/></svg>