<svg xmlns="http://www.w3.org/2000/svg" xmlns:xlink="http://www.w3.org/1999/xlink" width="500" zoomAndPan="magnify" viewBox="0 0 375 374.999991" height="500" preserveAspectRatio="xMidYMid meet" version="1.0"><defs><clipPath id="id1"><path d="M 7 9 L 368 9 L 368 369.136719 L 7 369.136719 Z M 7 9 " clip-rule="nonzero"/></clipPath></defs><g clip-path="url(#id1)"><path fill="#ffffff" d="M 238.234375 189.480469 L 356.542969 71.082031 C 370.570312 57.050781 370.570312 34.289062 356.542969 20.25 C 342.511719 6.21875 319.789062 6.21875 305.761719 20.25 L 187.453125 138.648438 L 69.144531 20.261719 C 55.125 6.21875 32.382812 6.21875 18.351562 20.261719 C 4.332031 34.289062 4.332031 57.050781 18.351562 71.09375 L 136.660156 189.480469 L 18.0625 308.167969 C 4.046875 322.199219 4.046875 344.960938 18.0625 358.988281 C 25.066406 366.007812 34.273438 369.519531 43.453125 369.519531 C 52.636719 369.519531 61.839844 366.007812 68.855469 358.988281 L 187.441406 240.3125 L 305.738281 358.703125 C 312.75 365.722656 321.945312 369.230469 331.128906 369.230469 C 340.308594 369.230469 349.503906 365.722656 356.515625 358.703125 C 370.546875 344.671875 370.546875 321.910156 356.515625 307.882812 Z M 238.234375 189.480469 " fill-opacity="1" fill-rule="nonzero"/></g></svg>